Comme-Medium.ufo
<glyph name="dollar" format="1">
  <advance width="1223"/>
  <unicode hex="0024"/>
  <outline>
    <contour>
      <point x="556" y="1767" type="line"/>
      <point x="543" y="1429" type="line"/>
      <point x="690" y="1429" type="line"/>
      <point x="690" y="1767" type="line"/>
    </contour>
    <contour>
      <point x="545" y="46" type="line"/>
      <point x="545" y="-293" type="line"/>
      <point x="677" y="-293" type="line"/>
      <point x="686" y="46" type="line"/>
    </contour>
    <component base="S"/>
  </outline>
</glyph>
<glyph name="three" format="1">
  <advance width="1242"/>
  <unicode hex="0033"/>
  <outline>
    <contour>
      <point x="607" y="-20" type="curve" smooth="yes"/>
      <point x="899" y="-20"/>
      <point x="1089" y="150"/>
      <point x="1089" y="389" type="curve" smooth="yes"/>
      <point x="1090" y="597"/>
      <point x="966" y="767"/>
      <point x="694" y="773" type="curve"/>
      <point x="694" y="757" type="line"/>
      <point x="947" y="776"/>
      <point x="1048" y="919"/>
      <point x="1048" y="1089" type="curve"/>
      <point x="1050" y="1332"/>
      <point x="883" y="1476"/>
      <point x="609" y="1476" type="curve"/>
      <point x="452" y="1476"/>
      <point x="244" y="1419"/>
      <point x="150" y="1236" type="curve"/>
      <point x="267" y="1133" type="line"/>
      <point x="287" y="1132" type="line"/>
      <point x="369" y="1256"/>
      <point x="478" y="1301"/>
      <point x="603" y="1299" type="curve"/>
      <point x="761" y="1299"/>
      <point x="837" y="1214"/>
      <point x="834" y="1074" type="curve"/>
      <point x="834" y="868"/>
      <point x="653" y="837"/>
      <point x="482" y="837" type="curve" smooth="yes"/>
      <point x="401" y="837" type="line"/>
      <point x="425" y="675" type="line"/>
      <point x="482" y="675" type="line" smooth="yes"/>
      <point x="729" y="675"/>
      <point x="867" y="616"/>
      <point x="867" y="400" type="curve" smooth="yes"/>
      <point x="868" y="237"/>
      <point x="755" y="157"/>
      <point x="599" y="157" type="curve" smooth="yes"/>
      <point x="490" y="157"/>
      <point x="357" y="198"/>
      <point x="282" y="312" type="curve"/>
      <point x="266" y="312" type="line"/>
      <point x="152" y="206" type="line"/>
      <point x="236" y="58"/>
      <point x="422" y="-20"/>
    </contour>
  </outline>
</glyph>
<glyph name="five" format="1">
  <advance width="1284"/>
  <unicode hex="0035"/>
  <outline>
    <contour>
      <point x="297" y="319" type="line"/>
      <point x="178" y="200" type="line"/>
      <point x="247" y="88"/>
      <point x="407" y="-20"/>
      <point x="640" y="-20" type="curve" smooth="yes"/>
      <point x="983" y="-20"/>
      <point x="1151" y="223"/>
      <point x="1151" y="475" type="curve" smooth="yes"/>
      <point x="1151" y="707"/>
      <point x="1004" y="941"/>
      <point x="705" y="941" type="curve" smooth="yes"/>
      <point x="566" y="941"/>
      <point x="473" y="885"/>
      <point x="396" y="794" type="curve"/>
      <point x="440" y="786" type="line"/>
      <point x="492" y="1292" type="line"/>
      <point x="1044" y="1292" type="line"/>
      <point x="1066" y="1456" type="line"/>
      <point x="299" y="1456" type="line"/>
      <point x="249" y="686" type="line"/>
      <point x="420" y="658" type="line"/>
      <point x="476" y="744"/>
      <point x="571" y="787"/>
      <point x="683" y="783" type="curve" smooth="yes"/>
      <point x="841" y="777"/>
      <point x="930" y="629"/>
      <point x="930" y="479" type="curve" smooth="yes"/>
      <point x="931" y="310"/>
      <point x="835" y="158"/>
      <point x="631" y="158" type="curve" smooth="yes"/>
      <point x="493" y="158"/>
      <point x="389" y="210"/>
      <point x="313" y="319" type="curve"/>
    </contour>
  </outline>
</glyph>
<glyph name="at" format="1">
  <advance width="1957"/>
  <unicode hex="0040"/>
  <outline>
    <contour>
      <point x="958" y="-181" type="curve" smooth="yes"/>
      <point x="1155" y="-181"/>
      <point x="1357" y="-132"/>
      <point x="1486" y="-40" type="curve"/>
      <point x="1438" y="79" type="line"/>
      <point x="1302" y="-5"/>
      <point x="1129" y="-36"/>
      <point x="961" y="-36" type="curve" smooth="yes"/>
      <point x="552" y="-36"/>
      <point x="324" y="240"/>
      <point x="324" y="628" type="curve" smooth="yes"/>
      <point x="324" y="1034"/>
      <point x="588" y="1363"/>
      <point x="1019" y="1363" type="curve" smooth="yes"/>
      <point x="1442" y="1363"/>
      <point x="1645" y="1099"/>
      <point x="1645" y="778" type="curve" smooth="yes"/>
      <point x="1645" y="506"/>
      <point x="1526" y="368"/>
      <point x="1417" y="368" type="curve" smooth="yes"/>
      <point x="1349" y="368"/>
      <point x="1298" y="424"/>
      <point x="1298" y="505" type="curve" smooth="yes"/>
      <point x="1298" y="631"/>
      <point x="1335" y="821"/>
      <point x="1364" y="1029" type="curve"/>
      <point x="1281" y="1072"/>
      <point x="1144" y="1107"/>
      <point x="1033" y="1107" type="curve" smooth="yes"/>
      <point x="739" y="1107"/>
      <point x="580" y="844"/>
      <point x="580" y="590" type="curve" smooth="yes"/>
      <point x="580" y="387"/>
      <point x="689" y="226"/>
      <point x="894" y="226" type="curve" smooth="yes"/>
      <point x="1045" y="226"/>
      <point x="1146" y="352"/>
      <point x="1190" y="484" type="curve"/>
      <point x="1170" y="491" type="line"/>
      <point x="1192" y="332"/>
      <point x="1273" y="232"/>
      <point x="1417" y="232" type="curve" smooth="yes"/>
      <point x="1595" y="232"/>
      <point x="1803" y="414"/>
      <point x="1803" y="770" type="curve" smooth="yes"/>
      <point x="1803" y="1219"/>
      <point x="1464" y="1507"/>
      <point x="1026" y="1507" type="curve" smooth="yes"/>
      <point x="519" y="1507"/>
      <point x="148" y="1131"/>
      <point x="148" y="632" type="curve" smooth="yes"/>
      <point x="148" y="124"/>
      <point x="479" y="-181"/>
    </contour>
    <contour>
      <point x="911" y="360" type="curve" smooth="yes"/>
      <point x="800" y="360"/>
      <point x="751" y="445"/>
      <point x="750" y="587" type="curve" smooth="yes"/>
      <point x="748" y="807"/>
      <point x="869" y="981"/>
      <point x="1049" y="981" type="curve" smooth="yes"/>
      <point x="1077" y="981"/>
      <point x="1136" y="973"/>
      <point x="1178" y="964" type="curve"/>
      <point x="1137" y="712" type="line" smooth="yes"/>
      <point x="1104" y="502"/>
      <point x="1054" y="360"/>
    </contour>
  </outline>
</glyph>
<glyph name="C" format="1">
  <advance width="1465"/>
  <unicode hex="0043"/>
  <outline>
    <contour>
      <point x="796" y="1456" type="move" name="top"/>
    </contour>
    <contour>
      <point x="805" y="1" type="move" name="bot"/>
    </contour>
    <contour>
      <point x="145" y="730" type="curve" smooth="yes"/>
      <point x="145" y="241"/>
      <point x="419" y="-31"/>
      <point x="837" y="-19" type="curve" smooth="yes"/>
      <point x="1106" y="-13"/>
      <point x="1325" y="145"/>
      <point x="1373" y="374" type="curve"/>
      <point x="1205" y="438" type="line"/>
      <point x="1187" y="438" type="line"/>
      <point x="1153" y="288"/>
      <point x="1015" y="161"/>
      <point x="843" y="155" type="curve" smooth="yes"/>
      <point x="570" y="145"/>
      <point x="385" y="329"/>
      <point x="385" y="730" type="curve" smooth="yes"/>
      <point x="385" y="1128"/>
      <point x="563" y="1308"/>
      <point x="843" y="1302" type="curve" smooth="yes"/>
      <point x="1015" y="1298"/>
      <point x="1150" y="1169"/>
      <point x="1184" y="1019" type="curve"/>
      <point x="1202" y="1019" type="line"/>
      <point x="1370" y="1083" type="line"/>
      <point x="1322" y="1311"/>
      <point x="1102" y="1471"/>
      <point x="837" y="1477" type="curve" smooth="yes"/>
      <point x="419" y="1489"/>
      <point x="145" y="1216"/>
    </contour>
  </outline>
</glyph>
<glyph name="H" format="1">
  <advance width="1552"/>
  <unicode hex="0048"/>
  <outline>
    <contour>
      <point x="789" y="1456" type="move" name="top"/>
    </contour>
    <contour>
      <point x="1121" y="1456" type="line"/>
      <point x="1121" y="794" type="line"/>
      <point x="1172" y="834" type="line"/>
      <point x="369" y="834" type="line"/>
      <point x="431" y="791" type="line"/>
      <point x="431" y="1456" type="line"/>
      <point x="200" y="1456" type="line"/>
      <point x="200" y="-2" type="line"/>
      <point x="431" y="-2" type="line"/>
      <point x="431" y="707" type="line"/>
      <point x="372" y="662" type="line"/>
      <point x="1175" y="662" type="line"/>
      <point x="1121" y="707" type="line"/>
      <point x="1121" y="-2" type="line"/>
      <point x="1352" y="-2" type="line"/>
      <point x="1352" y="1456" type="line"/>
    </contour>
  </outline>
</glyph>
<glyph name="M" format="1">
  <advance width="1833"/>
  <unicode hex="004D"/>
  <outline>
    <contour>
      <point x="928" y="1456" type="move" name="top"/>
    </contour>
    <contour>
      <point x="177" y="-2" type="line"/>
      <point x="395" y="-2" type="line"/>
      <point x="395" y="494" type="line"/>
      <point x="405" y="1273" type="line"/>
      <point x="344" y="1272" type="line"/>
      <point x="829" y="186" type="line"/>
      <point x="1001" y="186" type="line"/>
      <point x="1495" y="1272" type="line"/>
      <point x="1429" y="1273" type="line"/>
      <point x="1439" y="497" type="line"/>
      <point x="1439" y="-2" type="line"/>
      <point x="1656" y="-2" type="line"/>
      <point x="1656" y="513" type="line"/>
      <point x="1633" y="1456" type="line"/>
      <point x="1377" y="1456" type="line"/>
      <point x="888" y="383" type="line"/>
      <point x="949" y="383" type="line"/>
      <point x="463" y="1456" type="line"/>
      <point x="201" y="1456" type="line"/>
      <point x="177" y="510" type="line"/>
    </contour>
  </outline>
</glyph>
<glyph name="P" format="1">
  <advance width="1337"/>
  <unicode hex="0050"/>
  <outline>
    <contour>
      <point x="700" y="1456" type="move" name="top"/>
    </contour>
    <contour>
      <point x="197" y="1438" type="curve"/>
      <point x="197" y="0" type="line"/>
      <point x="428" y="0" type="line"/>
      <point x="428" y="655" type="line"/>
      <point x="366" y="614" type="line"/>
      <point x="1085" y="544"/>
      <point x="1248" y="745"/>
      <point x="1248" y="1052" type="curve" smooth="yes"/>
      <point x="1248" y="1397"/>
      <point x="1007" y="1524"/>
    </contour>
    <contour>
      <point x="368" y="1290" type="line"/>
      <point x="932" y="1348"/>
      <point x="1032" y="1245"/>
      <point x="1032" y="1045" type="curve" smooth="yes"/>
      <point x="1032" y="836"/>
      <point x="937" y="717"/>
      <point x="370" y="773" type="curve"/>
      <point x="428" y="727" type="line"/>
      <point x="428" y="1346" type="line"/>
    </contour>
  </outline>
</glyph>
<glyph name="S" format="1">
  <advance width="1223"/>
  <unicode hex="0053"/>
  <outline>
    <contour>
      <point x="620" y="1471" type="move" name="top"/>
    </contour>
    <contour>
      <point x="620" y="0" type="move" name="bot"/>
    </contour>
    <contour>
      <point x="602" y="-20" type="curve" smooth="yes"/>
      <point x="857" y="-20"/>
      <point x="1108" y="88"/>
      <point x="1111" y="384" type="curve" smooth="yes"/>
      <point x="1113" y="648"/>
      <point x="976" y="723"/>
      <point x="742" y="817" type="curve" smooth="yes"/>
      <point x="544" y="896" type="line" smooth="yes"/>
      <point x="385" y="962"/>
      <point x="339" y="997"/>
      <point x="342" y="1113" type="curve" smooth="yes"/>
      <point x="347" y="1263"/>
      <point x="481" y="1308"/>
      <point x="630" y="1305" type="curve" smooth="yes"/>
      <point x="752" y="1303"/>
      <point x="871" y="1251"/>
      <point x="936" y="1164" type="curve"/>
      <point x="953" y="1164" type="line"/>
      <point x="1086" y="1272" type="line"/>
      <point x="996" y="1390"/>
      <point x="827" y="1477"/>
      <point x="613" y="1476" type="curve" smooth="yes"/>
      <point x="363" y="1475"/>
      <point x="126" y="1392"/>
      <point x="113" y="1107" type="curve" smooth="yes"/>
      <point x="101" y="875"/>
      <point x="217" y="804"/>
      <point x="420" y="721" type="curve" smooth="yes"/>
      <point x="627" y="635" type="line" smooth="yes"/>
      <point x="835" y="549"/>
      <point x="890" y="510"/>
      <point x="886" y="374" type="curve" smooth="yes"/>
      <point x="881" y="216"/>
      <point x="759" y="157"/>
      <point x="598" y="157" type="curve" smooth="yes"/>
      <point x="471" y="157"/>
      <point x="339" y="212"/>
      <point x="253" y="300" type="curve"/>
      <point x="236" y="300" type="line"/>
      <point x="105" y="184" type="line"/>
      <point x="186" y="80"/>
      <point x="358" y="-20"/>
    </contour>
  </outline>
</glyph>
<glyph name="a" format="1">
  <advance width="1125"/>
  <unicode hex="0061"/>
  <outline>
    <contour>
      <point x="558" y="1083" type="move" name="top"/>
    </contour>
    <contour>
      <point x="895" y="1" type="move" name="ogonek"/>
    </contour>
    <contour>
      <point x="521" y="1" type="move" name="bot"/>
    </contour>
    <contour>
      <point x="433" y="-19" type="curve" smooth="yes"/>
      <point x="632" y="-24"/>
      <point x="754" y="57"/>
      <point x="849" y="209" type="curve"/>
      <point x="780" y="201" type="line"/>
      <point x="806" y="0" type="line"/>
      <point x="982" y="0" type="line"/>
      <point x="982" y="691" type="line" smooth="yes"/>
      <point x="982" y="992"/>
      <point x="806" y="1105"/>
      <point x="560" y="1105" type="curve" smooth="yes"/>
      <point x="415" y="1105"/>
      <point x="260" y="1070"/>
      <point x="142" y="999" type="curve"/>
      <point x="197" y="847" type="line"/>
      <point x="304" y="913"/>
      <point x="442" y="945"/>
      <point x="544" y="945" type="curve" smooth="yes"/>
      <point x="691" y="945"/>
      <point x="768" y="877"/>
      <point x="768" y="716" type="curve" smooth="yes"/>
      <point x="768" y="572" type="line"/>
      <point x="807" y="601" type="line"/>
      <point x="553" y="604" type="line" smooth="yes"/>
      <point x="263" y="606"/>
      <point x="104" y="504"/>
      <point x="104" y="296" type="curve" smooth="yes"/>
      <point x="104" y="90"/>
      <point x="238" y="-15"/>
    </contour>
    <contour>
      <point x="468" y="124" type="curve" smooth="yes"/>
      <point x="381" y="129"/>
      <point x="305" y="180"/>
      <point x="305" y="298" type="curve" smooth="yes"/>
      <point x="306" y="420"/>
      <point x="386" y="478"/>
      <point x="586" y="478" type="curve" smooth="yes"/>
      <point x="798" y="477" type="line"/>
      <point x="767" y="521" type="line"/>
      <point x="767" y="211" type="line"/>
      <point x="789" y="281" type="line"/>
      <point x="726" y="188"/>
      <point x="620" y="116"/>
    </contour>
  </outline>
</glyph>
<glyph name="b" format="1">
  <advance width="1222"/>
  <unicode hex="0062"/>
  <outline>
    <contour>
      <point x="683" y="1082" type="move" name="top"/>
    </contour>
    <contour>
      <point x="659" y="-20" type="curve" smooth="yes"/>
      <point x="954" y="-20"/>
      <point x="1116" y="207"/>
      <point x="1116" y="544" type="curve" smooth="yes"/>
      <point x="1116" y="875"/>
      <point x="977" y="1114"/>
      <point x="672" y="1105" type="curve" smooth="yes"/>
      <point x="526" y="1102"/>
      <point x="381" y="1013"/>
      <point x="334" y="784" type="curve"/>
      <point x="362" y="783" type="line"/>
      <point x="373" y="1117" type="line"/>
      <point x="373" y="1560" type="line"/>
      <point x="157" y="1540" type="line"/>
      <point x="157" y="0" type="line"/>
      <point x="339" y="0" type="line"/>
      <point x="358" y="203" type="line"/>
      <point x="305" y="197" type="line"/>
      <point x="349" y="89"/>
      <point x="468" y="-20"/>
    </contour>
    <contour>
      <point x="633" y="134" type="curve" smooth="yes"/>
      <point x="518" y="134"/>
      <point x="428" y="176"/>
      <point x="368" y="258" type="curve"/>
      <point x="368" y="560" type="line" smooth="yes"/>
      <point x="368" y="809"/>
      <point x="460" y="951"/>
      <point x="651" y="951" type="curve" smooth="yes"/>
      <point x="831" y="951"/>
      <point x="895" y="795"/>
      <point x="895" y="543" type="curve" smooth="yes"/>
      <point x="895" y="283"/>
      <point x="810" y="134"/>
    </contour>
  </outline>
</glyph>
<glyph name="d" format="1">
  <advance width="1216"/>
  <unicode hex="0064"/>
  <outline>
    <contour>
      <point x="518" y="1082" type="move" name="top"/>
    </contour>
    <contour>
      <point x="1109" y="1180" type="move" name="caron.alt"/>
    </contour>
    <contour>
      <point x="958" y="1307" type="move" name="mid"/>
    </contour>
    <contour>
      <point x="850" y="1540" type="line"/>
      <point x="850" y="1150" type="line"/>
      <point x="858" y="883" type="line"/>
      <point x="918" y="889" type="line"/>
      <point x="874" y="997"/>
      <point x="763" y="1105"/>
      <point x="572" y="1103" type="curve" smooth="yes"/>
      <point x="277" y="1105"/>
      <point x="107" y="881"/>
      <point x="107" y="542" type="curve"/>
      <point x="107" y="211"/>
      <point x="267" y="-22"/>
      <point x="571" y="-20" type="curve" smooth="yes"/>
      <point x="727" y="-19"/>
      <point x="875" y="81"/>
      <point x="925" y="237" type="curve"/>
      <point x="866" y="220" type="line"/>
      <point x="882" y="0" type="line"/>
      <point x="1071" y="0" type="line"/>
      <point x="1071" y="1560" type="line"/>
    </contour>
    <contour>
      <point x="600" y="134" type="curve" smooth="yes"/>
      <point x="420" y="134"/>
      <point x="329" y="275"/>
      <point x="329" y="544" type="curve" smooth="yes"/>
      <point x="329" y="814"/>
      <point x="425" y="951"/>
      <point x="602" y="951" type="curve" smooth="yes"/>
      <point x="712" y="951"/>
      <point x="803" y="908"/>
      <point x="855" y="835" type="curve"/>
      <point x="855" y="245" type="line"/>
      <point x="797" y="171"/>
      <point x="706" y="134"/>
    </contour>
  </outline>
</glyph>
<glyph name="e" format="1">
  <advance width="1148"/>
  <unicode hex="0065"/>
  <outline>
    <contour>
      <point x="620" y="1082" type="move" name="top"/>
    </contour>
    <contour>
      <point x="885" y="41" type="move" name="ogonek"/>
    </contour>
    <contour>
      <point x="631" y="1" type="move" name="bot"/>
    </contour>
    <contour>
      <point x="637" y="-20" type="curve" smooth="yes"/>
      <point x="796" y="-20"/>
      <point x="931" y="27"/>
      <point x="1019" y="92" type="curve"/>
      <point x="970" y="224" type="line"/>
      <point x="957" y="224" type="line"/>
      <point x="868" y="173"/>
      <point x="785" y="134"/>
      <point x="664" y="134" type="curve" smooth="yes"/>
      <point x="469" y="134"/>
      <point x="326" y="258"/>
      <point x="325" y="542" type="curve"/>
      <point x="280" y="494" type="line"/>
      <point x="1036" y="494" type="line"/>
      <point x="1036" y="494"/>
      <point x="1045" y="553"/>
      <point x="1046" y="595" type="curve" smooth="yes"/>
      <point x="1050" y="906"/>
      <point x="898" y="1105"/>
      <point x="612" y="1105" type="curve" smooth="yes"/>
      <point x="327" y="1105"/>
      <point x="106" y="896"/>
      <point x="106" y="539" type="curve" smooth="yes"/>
      <point x="106" y="192"/>
      <point x="332" y="-20"/>
    </contour>
    <contour>
      <point x="330" y="626" type="line"/>
      <point x="347" y="834"/>
      <point x="462" y="954"/>
      <point x="626" y="952" type="curve" smooth="yes"/>
      <point x="784" y="950"/>
      <point x="859" y="836"/>
      <point x="861" y="626" type="curve"/>
    </contour>
  </outline>
</glyph>
<glyph name="l" format="1">
  <advance width="659"/>
  <unicode hex="006C"/>
  <outline>
    <contour>
      <point x="338" y="1513" type="move" name="top"/>
    </contour>
    <contour>
      <point x="297" y="822" type="move" name="mid"/>
    </contour>
    <contour>
      <point x="500" y="-9" type="curve" smooth="yes"/>
      <point x="576" y="-8" type="line"/>
      <point x="589" y="141" type="line"/>
      <point x="511" y="146" type="line" smooth="yes"/>
      <point x="399" y="154"/>
      <point x="379" y="174"/>
      <point x="379" y="313" type="curve" smooth="yes"/>
      <point x="379" y="1560" type="line"/>
      <point x="161" y="1540" type="line"/>
      <point x="161" y="320" type="line" smooth="yes"/>
      <point x="161" y="50"/>
      <point x="270" y="-12"/>
    </contour>
  </outline>
</glyph>
<glyph name="q" format="1">
  <advance width="1217"/>
  <unicode hex="0071"/>
  <outline>
    <contour>
      <point x="847" y="-462" type="line"/>
      <point x="1062" y="-462" type="line"/>
      <point x="1062" y="1082" type="line"/>
      <point x="877" y="1082" type="line"/>
      <point x="861" y="845" type="line"/>
      <point x="918" y="844" type="line"/>
      <point x="878" y="977"/>
      <point x="768" y="1105"/>
      <point x="567" y="1105" type="curve" smooth="yes"/>
      <point x="274" y="1105"/>
      <point x="104" y="877"/>
      <point x="104" y="546" type="curve" smooth="yes"/>
      <point x="104" y="209"/>
      <point x="264" y="-22"/>
      <point x="571" y="-20" type="curve" smooth="yes"/>
      <point x="707" y="-19"/>
      <point x="858" y="45"/>
      <point x="918" y="201" type="curve"/>
      <point x="853" y="205" type="line"/>
      <point x="847" y="-28" type="line"/>
    </contour>
    <contour>
      <point x="599" y="134" type="curve" smooth="yes"/>
      <point x="420" y="134"/>
      <point x="325" y="269"/>
      <point x="325" y="546" type="curve" smooth="yes"/>
      <point x="325" y="809"/>
      <point x="418" y="951"/>
      <point x="594" y="951" type="curve" smooth="yes"/>
      <point x="703" y="951"/>
      <point x="792" y="909"/>
      <point x="851" y="822" type="curve"/>
      <point x="851" y="245" type="line"/>
      <point x="799" y="174"/>
      <point x="709" y="134"/>
    </contour>
  </outline>
</glyph>
<glyph name="w" format="1">
  <advance width="1513"/>
  <unicode hex="0077"/>
  <outline>
    <contour>
      <point x="764" y="1082" type="move" name="top"/>
    </contour>
    <contour>
      <point x="1299" y="1082" type="line"/>
      <point x="1094" y="166" type="line"/>
      <point x="1139" y="166" type="line"/>
      <point x="870" y="1082" type="line"/>
      <point x="654" y="1082" type="line"/>
      <point x="392" y="166" type="line"/>
      <point x="437" y="166" type="line"/>
      <point x="223" y="1082" type="line"/>
      <point x="20" y="1082" type="line"/>
      <point x="308" y="-2" type="line"/>
      <point x="502" y="-2" type="line"/>
      <point x="787" y="946" type="line"/>
      <point x="745" y="946" type="line"/>
      <point x="1017" y="-2" type="line"/>
      <point x="1215" y="-2" type="line"/>
      <point x="1493" y="1082" type="line"/>
    </contour>
  </outline>
</glyph>
<glyph name="x" format="1">
  <advance width="1066"/>
  <unicode hex="0078"/>
  <outline>
    <contour>
      <point x="802" y="1082" type="line"/>
      <point x="521" y="660" type="line"/>
      <point x="434" y="569" type="line"/>
      <point x="41" y="-2" type="line"/>
      <point x="255" y="-2" type="line"/>
      <point x="550" y="431" type="line"/>
      <point x="638" y="524" type="line"/>
      <point x="1015" y="1082" type="line"/>
    </contour>
    <contour>
      <point x="62" y="1082" type="line"/>
      <point x="785" y="-2" type="line"/>
      <point x="1023" y="-2" type="line"/>
      <point x="299" y="1082" type="line"/>
    </contour>
  </outline>
</glyph>
<glyph name="cedilla" format="1">
  <advance width="700"/>
  <unicode hex="00B8"/>
  <outline>
    <contour>
      <point x="424" y="13" type="move" name="_bot"/>
    </contour>
    <contour>
      <point x="373" y="-406" type="curve" smooth="yes"/>
      <point x="516" y="-406"/>
      <point x="625" y="-329"/>
      <point x="625" y="-203" type="curve" smooth="yes"/>
      <point x="625" y="-56"/>
      <point x="490" y="-7"/>
      <point x="349" y="-60" type="curve"/>
      <point x="349" y="-116" type="line"/>
      <point x="474" y="-94"/>
      <point x="505" y="-149"/>
      <point x="504" y="-202" type="curve" smooth="yes"/>
      <point x="501" y="-297"/>
      <point x="375" y="-335"/>
      <point x="245" y="-280" type="curve"/>
      <point x="212" y="-371" type="line"/>
      <point x="263" y="-394"/>
      <point x="318" y="-406"/>
    </contour>
  </outline>
</glyph>
<glyph name="kgreenlandic" format="1">
  <advance width="1109"/>
  <unicode hex="0138"/>
  <outline>
    <contour>
      <point x="143" y="0" type="line"/>
      <point x="337" y="0" type="line"/>
      <point x="337" y="439" type="line"/>
      <point x="295" y="347" type="line"/>
      <point x="486" y="520" type="line"/>
      <point x="423" y="524" type="line"/>
      <point x="845" y="0" type="line"/>
      <point x="1062" y="0" type="line"/>
      <point x="1062" y="19" type="line"/>
      <point x="560" y="630" type="line"/>
      <point x="553" y="544" type="line"/>
      <point x="1031" y="1060" type="line"/>
      <point x="1031" y="1082" type="line"/>
      <point x="806" y="1082" type="line"/>
      <point x="293" y="517" type="line"/>
      <point x="330" y="511" type="line"/>
      <point x="337" y="780" type="line"/>
      <point x="337" y="1082" type="line"/>
      <point x="143" y="1082" type="line"/>
    </contour>
  </outline>
</glyph>
<glyph name="eng" format="1">
  <advance width="1206"/>
  <unicode hex="014B"/>
  <outline>
    <contour>
      <point x="857" y="137" type="line"/>
      <point x="857" y="-12" type="line"/>
      <point x="856" y="-231"/>
      <point x="821" y="-290"/>
      <point x="480" y="-290" type="curve"/>
      <point x="487" y="-448" type="line"/>
      <point x="934" y="-444"/>
      <point x="1074" y="-347"/>
      <point x="1074" y="-23" type="curve"/>
      <point x="1074" y="137" type="line"/>
    </contour>
    <component base="n"/>
  </outline>
</glyph>
<glyph name="florin" format="1">
  <advance width="1068"/>
  <unicode hex="0192"/>
  <outline>
    <contour>
      <point x="531" y="1250" type="curve" smooth="yes"/>
      <point x="498" y="1066" type="line"/>
      <point x="319" y="1066" type="line"/>
      <point x="302" y="985" type="line"/>
      <point x="485" y="985" type="line"/>
      <point x="294" y="117" type="line" smooth="yes"/>
      <point x="249" y="-105"/>
      <point x="264" y="-234"/>
      <point x="-9" y="-181" type="curve"/>
      <point x="-31" y="-275" type="line"/>
      <point x="218" y="-355"/>
      <point x="415" y="-224"/>
      <point x="488" y="120" type="curve" smooth="yes"/>
      <point x="679" y="985" type="line"/>
      <point x="923" y="985" type="line"/>
      <point x="939" y="1066" type="line"/>
      <point x="696" y="1066" type="line"/>
      <point x="734" y="1274" type="line" smooth="yes"/>
      <point x="756" y="1388"/>
      <point x="792" y="1475"/>
      <point x="887" y="1477" type="curve" smooth="yes"/>
      <point x="966" y="1480"/>
      <point x="993" y="1416"/>
      <point x="998" y="1303" type="curve"/>
      <point x="1137" y="1303" type="line"/>
      <point x="1134" y="1508"/>
      <point x="1033" y="1588"/>
      <point x="879" y="1588" type="curve" smooth="yes"/>
      <point x="676" y="1588"/>
      <point x="568" y="1452"/>
    </contour>
  </outline>
</glyph>
<glyph name="dagger" format="1">
  <advance width="1080"/>
  <unicode hex="2020"/>
  <outline>
    <contour>
      <point x="452" y="1485" type="line"/>
      <point x="452" y="1104" type="line"/>
      <point x="160" y="1104" type="line"/>
      <point x="160" y="974" type="line"/>
      <point x="452" y="974" type="line"/>
      <point x="452" y="56" type="line"/>
      <point x="619" y="56" type="line"/>
      <point x="619" y="974" type="line"/>
      <point x="920" y="974" type="line"/>
      <point x="920" y="1104" type="line"/>
      <point x="620" y="1104" type="line"/>
      <point x="620" y="1485" type="line"/>
    </contour>
  </outline>
</glyph>
<glyph name="radical" format="1">
  <advance width="1202"/>
  <unicode hex="221A"/>
  <outline>
    <contour>
      <point x="1009" y="1679" type="line"/>
      <point x="909" y="1260"/>
      <point x="705" y="503"/>
      <point x="606" y="84" type="curve"/>
      <point x="543" y="283" type="line"/>
      <point x="321" y="912" type="line"/>
      <point x="42" y="842" type="line"/>
      <point x="60" y="720" type="line"/>
      <point x="207" y="754" type="line"/>
      <point x="538" y="-164" type="line"/>
      <point x="717" y="-164" type="line"/>
      <point x="1170" y="1679" type="line"/>
    </contour>
  </outline>
</glyph>
<glyph name="middot" format="1">
  <advance width="613"/>
  <outline>
    <contour>
      <point x="313" y="637" type="move" name="_mid"/>
    </contour>
    <component base="period" xOffset="-14" yOffset="512"/>
  </outline>
</glyph>
